G75*
%MOIN*%
%OFA0B0*%
%FSLAX25Y25*%
%IPPOS*%
%LPD*%
%AMOC8*
5,1,8,0,0,1.08239X$1,22.5*
%
%ADD10C,0.00000*%
%ADD11OC8,0.05200*%
%ADD12C,0.05200*%
%ADD13C,0.05150*%
%ADD14C,0.11220*%
%ADD15C,0.05200*%
%ADD16C,0.07400*%
%ADD17C,0.05937*%
%ADD18C,0.03562*%
%ADD19C,0.01600*%
D10*
X0006560Y0001800D02*
X0006560Y0198650D01*
X0203410Y0198650D01*
X0203410Y0001800D01*
X0006560Y0001800D01*
D11*
X0031560Y0036800D03*
X0046560Y0036800D03*
X0061560Y0041800D03*
X0061560Y0051800D03*
X0046560Y0076800D03*
X0031560Y0076800D03*
X0101560Y0014300D03*
X0111560Y0014300D03*
X0119060Y0014300D03*
X0159060Y0014300D03*
X0156560Y0106800D03*
X0156560Y0151800D03*
X0136560Y0151800D03*
X0136560Y0161800D03*
X0136560Y0176800D03*
X0146560Y0176800D03*
X0146560Y0186800D03*
X0136560Y0186800D03*
X0111560Y0186800D03*
X0106560Y0194300D03*
X0101560Y0186800D03*
X0169060Y0186800D03*
X0186560Y0186800D03*
X0196560Y0186800D03*
X0196560Y0151800D03*
D12*
X0169060Y0166800D03*
X0136560Y0106800D03*
D13*
X0079434Y0186800D03*
X0071560Y0186800D03*
X0063686Y0186800D03*
X0035359Y0161721D03*
X0032210Y0166446D03*
X0029060Y0161721D03*
X0025910Y0166446D03*
X0022761Y0161721D03*
D14*
X0014690Y0181800D03*
X0043430Y0181800D03*
D15*
X0088960Y0161800D02*
X0094160Y0161800D01*
X0094160Y0151800D02*
X0088960Y0151800D01*
X0088960Y0141800D02*
X0094160Y0141800D01*
X0094160Y0131800D02*
X0088960Y0131800D01*
X0088960Y0121800D02*
X0094160Y0121800D01*
X0094160Y0111800D02*
X0088960Y0111800D01*
X0088960Y0101800D02*
X0094160Y0101800D01*
X0094160Y0091800D02*
X0088960Y0091800D01*
X0088960Y0081800D02*
X0094160Y0081800D01*
X0094160Y0071800D02*
X0088960Y0071800D01*
X0088960Y0061800D02*
X0094160Y0061800D01*
X0094160Y0051800D02*
X0088960Y0051800D01*
X0088960Y0041800D02*
X0094160Y0041800D01*
X0094160Y0031800D02*
X0088960Y0031800D01*
X0118960Y0031800D02*
X0124160Y0031800D01*
X0124160Y0041800D02*
X0118960Y0041800D01*
X0118960Y0051800D02*
X0124160Y0051800D01*
X0124160Y0061800D02*
X0118960Y0061800D01*
X0118960Y0071800D02*
X0124160Y0071800D01*
X0124160Y0081800D02*
X0118960Y0081800D01*
X0118960Y0091800D02*
X0124160Y0091800D01*
X0124160Y0101800D02*
X0118960Y0101800D01*
X0118960Y0111800D02*
X0124160Y0111800D01*
X0124160Y0121800D02*
X0118960Y0121800D01*
X0118960Y0131800D02*
X0124160Y0131800D01*
X0124160Y0141800D02*
X0118960Y0141800D01*
X0118960Y0151800D02*
X0124160Y0151800D01*
X0124160Y0161800D02*
X0118960Y0161800D01*
D16*
X0076560Y0091800D03*
X0076560Y0081800D03*
X0076560Y0071800D03*
X0086560Y0016800D03*
X0066560Y0016800D03*
X0049060Y0016800D03*
X0029060Y0016800D03*
X0011560Y0016800D03*
X0011560Y0026800D03*
X0011560Y0036800D03*
X0011560Y0046800D03*
X0011560Y0056800D03*
X0011560Y0066800D03*
X0011560Y0076800D03*
X0011560Y0086800D03*
X0011560Y0096800D03*
X0011560Y0106800D03*
X0011560Y0116800D03*
X0011560Y0126800D03*
X0011560Y0136800D03*
X0198560Y0136800D03*
X0198560Y0126800D03*
X0198560Y0116800D03*
X0198560Y0106800D03*
X0198560Y0096800D03*
X0198560Y0086800D03*
X0198560Y0076800D03*
X0198560Y0066800D03*
D17*
X0087308Y0186800D03*
X0055812Y0186800D03*
D18*
X0056560Y0161800D03*
X0056560Y0146800D03*
X0051560Y0136800D03*
X0026560Y0131800D03*
X0026560Y0121800D03*
X0041528Y0086768D03*
X0036560Y0071800D03*
X0026560Y0056800D03*
X0026560Y0041800D03*
X0106560Y0041800D03*
X0106560Y0161800D03*
D19*
X0106560Y0041800D01*
X0101560Y0041800D02*
X0101560Y0014300D01*
X0111560Y0014300D02*
X0119060Y0014300D01*
X0091560Y0031800D02*
X0089055Y0031800D01*
X0068755Y0011500D01*
X0046210Y0011500D01*
X0022979Y0034731D01*
X0022979Y0113154D01*
X0030141Y0120317D01*
X0030141Y0148437D01*
X0018586Y0159992D01*
X0018586Y0163451D01*
X0021031Y0165896D01*
X0025361Y0165896D01*
X0025910Y0166446D01*
X0029060Y0161721D02*
X0051560Y0136800D01*
X0056560Y0146800D02*
X0036914Y0166446D01*
X0032210Y0166446D01*
X0056560Y0161800D02*
X0071560Y0186800D01*
X0091560Y0161800D02*
X0036560Y0096800D01*
X0036560Y0071800D01*
X0046560Y0051800D01*
X0046560Y0036800D01*
X0026560Y0056800D01*
X0046560Y0036800D02*
X0066560Y0016800D01*
X0061560Y0051800D02*
X0091560Y0041800D01*
X0091560Y0051800D02*
X0101560Y0041800D01*
X0091560Y0051800D02*
X0041528Y0086768D01*
X0046560Y0076800D02*
X0061560Y0051800D01*
X0019260Y0027005D02*
X0019260Y0114500D01*
X0026560Y0121800D01*
X0016860Y0122100D02*
X0026560Y0131800D01*
X0016860Y0122100D02*
X0016860Y0034605D01*
X0011560Y0029305D01*
X0011560Y0026800D01*
X0011560Y0019305D02*
X0019260Y0027005D01*
X0011560Y0019305D02*
X0011560Y0016800D01*
X0121560Y0111800D02*
X0121560Y0113260D01*
X0128360Y0120060D01*
X0128360Y0153540D01*
X0121560Y0160340D01*
X0121560Y0161800D01*
X0136560Y0161800D02*
X0136560Y0176800D01*
X0146560Y0186800D02*
X0191560Y0076800D01*
X0198560Y0076800D01*
X0196560Y0151800D02*
X0196560Y0186800D01*
X0186560Y0186800D02*
X0186560Y0184300D01*
X0169060Y0166800D01*
M02*
