%
M48
M72
T01C0.02362
T02C0.03150
T03C0.03200
T04C0.03937
T05C0.04000
T06C0.07480
%
T01
X26560Y41800
X26560Y56800
X36560Y71800
X41528Y86768
X26560Y121800
X26560Y131800
X51560Y136800
X56560Y146800
X56560Y161800
X106560Y161800
X106560Y41800
T02
X35359Y161721
X32210Y166446
X29060Y161721
X25910Y166446
X22761Y161721
X63686Y186800
X71560Y186800
X79434Y186800
T03
X101560Y186800
X106560Y194300
X111560Y186800
X136560Y186800
X146560Y186800
X146560Y176800
X136560Y176800
X136560Y161800
X136560Y151800
X121560Y151800
X121560Y141800
X121560Y131800
X121560Y121800
X121560Y111800
X121560Y101800
X121560Y91800
X121560Y81800
X121560Y71800
X121560Y61800
X121560Y51800
X121560Y41800
X121560Y31800
X119060Y14300
X111560Y14300
X101560Y14300
X91560Y31800
X91560Y41800
X91560Y51800
X91560Y61800
X91560Y71800
X91560Y81800
X91560Y91800
X91560Y101800
X91560Y111800
X91560Y121800
X91560Y131800
X91560Y141800
X91560Y151800
X91560Y161800
X121560Y161800
X156560Y151800
X169060Y166800
X169060Y186800
X186560Y186800
X196560Y186800
X196560Y151800
X156560Y106800
X136560Y106800
X61560Y51800
X61560Y41800
X46560Y36800
X31560Y36800
X31560Y76800
X46560Y76800
X159060Y14300
T04
X87308Y186800
X55812Y186800
T05
X11560Y16800
X11560Y26800
X11560Y36800
X11560Y46800
X11560Y56800
X11560Y66800
X11560Y76800
X11560Y86800
X11560Y96800
X11560Y106800
X11560Y116800
X11560Y126800
X11560Y136800
X76560Y91800
X76560Y81800
X76560Y71800
X86560Y16800
X66560Y16800
X49060Y16800
X29060Y16800
X198560Y66800
X198560Y76800
X198560Y86800
X198560Y96800
X198560Y106800
X198560Y116800
X198560Y126800
X198560Y136800
T06
X43430Y181800
X14690Y181800
M30
